<?xml version="1.0" standalone="no"?>
<!DOCTYPE svg PUBLIC "-//W3C//DTD SVG 20010904//EN"
 "http://www.w3.org/TR/2001/REC-SVG-20010904/DTD/svg10.dtd">
<svg version="1.0" xmlns="http://www.w3.org/2000/svg"
 width="987.000000pt" height="987.000000pt" viewBox="0 0 987.000000 987.000000"
 preserveAspectRatio="xMidYMid meet">
<metadata>
Created by potrace 1.14, written by Peter Selinger 2001-2017
</metadata>
<g transform="translate(0.000000,987.000000) scale(0.100000,-0.100000)"
fill="#000000" stroke="none">
<path d="M2826 9859 c-114 -17 -306 -78 -314 -101 -2 -4 -9 -8 -17 -8 -7 0
-18 -7 -25 -15 -7 -9 -15 -13 -17 -11 -13 13 -177 -151 -224 -224 -54 -82 -88
-162 -117 -269 l-25 -96 0 -465 c-1 -378 5 -615 13 -615 3 0 10 -51 14 -105 2
-30 5 -55 6 -55 1 0 4 -13 5 -30 2 -16 6 -41 9 -55 3 -14 9 -41 12 -60 18 -96
22 -111 50 -185 4 -11 8 -23 9 -27 2 -5 4 -10 5 -13 1 -3 3 -8 4 -12 5 -19 53
-124 85 -183 19 -36 39 -75 45 -87 6 -13 14 -23 19 -23 4 0 7 -7 7 -15 0 -8 5
-15 10 -15 6 0 10 -7 10 -15 0 -8 5 -15 10 -15 6 0 10 -6 10 -14 0 -8 4 -16 8
-18 4 -1 46 -50 92 -108 47 -58 93 -113 103 -122 9 -10 17 -22 17 -27 0 -5 3
-11 8 -13 4 -1 27 -28 52 -58 25 -30 48 -56 53 -58 4 -2 7 -10 7 -17 0 -7 4
-15 9 -17 17 -6 119 -155 164 -240 69 -129 101 -258 98 -393 -2 -85 -6 -120
-20 -162 -5 -18 -8 -33 -5 -33 7 0 -47 -115 -77 -162 -40 -62 -153 -171 -189
-183 -11 -3 -20 -10 -20 -14 0 -15 -228 -119 -300 -136 -44 -11 -68 -18 -80
-22 -19 -8 -27 -9 -74 -17 -21 -3 -42 -8 -46 -11 -4 -2 -25 -7 -46 -10 -21 -2
-50 -7 -64 -10 -14 -3 -49 -8 -78 -10 -29 -3 -65 -7 -79 -10 -74 -13 -316 -19
-780 -20 l-513 0 0 -340 0 -340 538 1 c295 0 541 -1 545 -4 4 -2 49 -6 100 -8
51 -2 108 -6 127 -9 19 -3 55 -7 80 -10 71 -8 100 -13 185 -30 91 -18 110 -23
110 -25 0 -1 11 -4 25 -7 31 -6 41 -8 60 -16 8 -3 40 -15 72 -26 258 -93 437
-253 496 -446 8 -27 16 -57 17 -65 1 -8 5 -31 10 -50 9 -39 9 -157 0 -210 -12
-73 -27 -144 -35 -159 -4 -9 -20 -45 -36 -81 -28 -62 -137 -234 -169 -266 -8
-8 -15 -18 -15 -22 0 -4 -17 -26 -38 -48 -20 -23 -47 -55 -59 -70 -111 -141
-167 -210 -175 -215 -5 -3 -10 -10 -9 -15 0 -5 -11 -21 -23 -35 -13 -15 -32
-39 -42 -55 -10 -16 -21 -31 -24 -34 -31 -27 -98 -146 -159 -282 -24 -54 -78
-211 -84 -248 -15 -78 -24 -139 -32 -199 -4 -25 -8 -62 -11 -81 -14 -100 -18
-235 -18 -645 -1 -414 2 -484 20 -570 3 -16 7 -34 8 -40 1 -5 4 -14 7 -20 4
-5 9 -23 13 -40 19 -79 100 -217 175 -298 56 -61 149 -130 229 -170 39 -20 72
-34 72 -30 0 3 6 1 13 -4 6 -6 26 -14 42 -18 45 -12 45 -12 48 -14 1 -1 18 -4
37 -7 19 -2 59 -9 89 -14 63 -12 4201 -14 4201 -2 0 4 16 8 35 9 142 8 363
119 475 239 54 58 140 181 147 209 1 6 14 38 28 73 15 35 27 72 28 83 1 10 4
19 7 19 3 0 6 8 7 18 0 9 4 46 9 82 11 77 12 875 2 975 -14 138 -27 253 -34
290 -10 62 -17 101 -21 120 -2 11 -7 37 -10 58 -3 20 -9 37 -12 37 -4 0 -7 9
-8 19 -4 56 -94 264 -161 375 -23 37 -42 72 -42 77 0 5 -3 9 -8 9 -4 0 -18 18
-32 40 -14 22 -28 40 -32 40 -5 0 -8 5 -8 10 0 6 -13 24 -30 40 -16 16 -30 32
-30 35 0 4 -6 12 -12 19 -7 7 -29 33 -48 56 -19 24 -51 62 -70 85 -19 23 -47
57 -62 76 -14 19 -38 48 -52 64 -14 17 -43 55 -63 85 -21 30 -40 57 -43 60 -3
3 -11 16 -18 30 -7 14 -26 48 -42 77 -29 54 -64 145 -74 198 -4 17 -9 41 -12
55 -6 33 -7 197 0 235 11 65 17 88 37 140 11 29 31 70 44 90 14 20 25 38 25
41 0 10 122 128 161 157 84 61 313 160 420 181 13 2 47 10 75 16 28 6 64 13
80 15 16 2 29 4 29 5 0 3 70 12 205 27 36 4 95 7 132 7 38 1 68 3 68 6 0 3
240 5 533 5 292 0 538 1 545 3 9 3 12 80 12 341 l0 336 -518 1 c-464 0 -641 5
-767 19 -162 18 -195 23 -300 46 -49 11 -99 22 -111 25 -38 7 -178 55 -189 64
-5 4 -13 9 -18 9 -18 1 -127 58 -177 93 -67 45 -150 121 -150 135 0 6 -6 13
-12 16 -7 3 -22 22 -33 43 -11 22 -22 41 -25 44 -20 20 -57 135 -66 209 -21
165 6 323 83 476 31 61 98 166 128 202 6 6 21 26 35 44 14 18 40 51 58 73 18
23 39 48 45 56 34 43 93 116 102 127 27 32 127 164 182 241 132 184 235 445
259 656 6 61 11 91 14 91 1 0 3 20 4 45 2 25 7 79 12 120 11 98 11 957 0 1035
-5 33 -12 70 -17 83 -5 13 -11 37 -14 55 -4 17 -10 36 -15 42 -4 5 -9 15 -10
20 -2 13 -57 124 -73 149 -45 70 -227 253 -227 228 0 -4 -4 -2 -8 4 -7 12
-124 73 -151 79 -9 3 -34 11 -56 19 -22 8 -56 17 -75 20 -19 3 -46 9 -60 13
-35 11 -4172 13 -4244 2z m4200 -671 c16 -11 8 -1043 -10 -1133 -2 -11 -7 -42
-10 -70 -15 -107 -71 -279 -102 -315 -7 -8 -13 -19 -14 -25 -3 -15 -80 -153
-108 -193 -7 -9 -41 -59 -76 -110 -75 -109 -94 -136 -119 -165 -10 -12 -26
-34 -35 -49 -9 -16 -20 -28 -24 -28 -4 0 -8 -5 -8 -12 0 -6 -7 -18 -16 -27 -8
-9 -37 -47 -64 -86 -64 -90 -63 -89 -110 -160 -22 -33 -43 -65 -47 -71 -21
-28 -34 -51 -39 -66 -4 -10 -10 -18 -15 -18 -5 0 -9 -6 -9 -14 0 -8 -6 -21
-13 -28 -34 -35 -100 -217 -122 -338 -14 -74 -14 -324 0 -400 21 -111 24 -123
34 -145 8 -17 19 -45 26 -65 41 -116 182 -297 305 -389 19 -14 44 -34 54 -43
11 -10 25 -18 32 -18 7 0 14 -4 16 -8 14 -34 331 -173 463 -203 28 -6 58 -13
68 -15 40 -9 56 -12 130 -25 61 -10 77 -16 77 -30 0 -9 -8 -20 -17 -24 -18 -7
-29 -9 -88 -19 -65 -10 -174 -36 -240 -57 -38 -13 -72 -23 -75 -24 -85 -19
-346 -160 -428 -230 -59 -51 -162 -159 -188 -197 -16 -24 -31 -45 -34 -48 -14
-13 -60 -100 -60 -114 0 -9 -4 -16 -10 -16 -5 0 -10 -7 -10 -16 0 -9 -6 -30
-14 -47 -14 -32 -32 -101 -44 -167 -9 -49 -8 -326 1 -380 13 -75 45 -185 71
-244 14 -31 26 -60 26 -64 1 -4 7 -14 14 -22 7 -8 24 -35 37 -60 13 -25 28
-49 32 -55 5 -5 32 -46 61 -90 70 -106 312 -445 369 -515 7 -8 28 -40 47 -70
19 -30 37 -57 40 -60 19 -18 173 -300 163 -300 -3 0 0 -7 7 -15 7 -8 10 -15 6
-15 -4 0 0 -13 9 -30 9 -16 13 -30 10 -30 -3 0 -1 -9 4 -19 6 -10 13 -34 15
-52 9 -63 16 -104 21 -128 19 -95 29 -1137 11 -1148 -7 -5 -4007 -8 -4161 -4
l-30 1 0 415 c1 228 4 417 7 421 4 3 4 16 0 28 -4 11 -7 32 -6 46 12 167 15
209 19 230 2 14 6 43 10 65 32 225 133 423 408 795 55 74 120 162 144 195 24
33 47 65 51 70 4 6 36 53 70 105 34 52 66 100 72 107 5 7 10 17 10 23 0 5 4
10 9 10 5 0 11 8 14 18 3 9 24 50 46 90 75 137 114 313 113 507 -1 108 -6 147
-37 285 -14 64 -68 178 -124 264 -41 63 -143 173 -217 235 -87 72 -263 168
-404 219 -117 43 -298 88 -388 97 -38 3 -45 8 -49 35 -2 15 3 20 20 21 12 0
29 2 37 4 8 1 40 8 70 14 113 22 191 42 290 76 70 24 229 93 240 105 3 3 15
11 28 18 74 41 67 36 147 99 83 65 179 167 226 238 21 33 43 65 49 72 5 7 10
19 10 28 0 8 5 15 12 15 6 0 9 3 5 6 -3 4 2 23 12 43 43 83 75 266 72 406 -2
121 -22 272 -39 299 -3 6 -7 21 -8 35 -2 13 -8 29 -13 34 -6 6 -11 18 -11 27
0 19 -58 133 -106 208 -19 29 -34 56 -34 61 0 5 -3 11 -7 13 -5 2 -26 30 -48
63 -67 101 -168 240 -177 243 -4 2 -8 8 -8 13 0 5 -29 46 -63 92 -35 45 -69
92 -75 104 -7 12 -18 27 -25 35 -24 24 -144 209 -194 301 -16 29 -76 159 -80
172 -1 6 -10 35 -18 65 -19 64 -20 72 -35 165 -23 140 -34 535 -15 535 7 0 7
3 0 8 -13 10 -14 225 0 234 6 5 6 8 0 8 -11 0 -14 368 -3 385 6 11 4167 13
4184 3z"/>
</g>
</svg>
